<mxfile host="app.diagrams.net" modified="2023-10-09T19:00:41.563Z" agent="Mozilla/5.0 (Windows NT 10.0; Win64; x64) AppleWebKit/537.36 (KHTML, like Gecko) Chrome/116.0.0.0 Safari/537.36" etag="XIibG_Gm001_Z0W6JJhX" version="22.0.3" type="github">
  <diagram name="Страница — 1" id="UBM8uuqGAXcxDV0GicOs">
    <mxGraphModel dx="1050" dy="542" grid="1" gridSize="10" guides="1" tooltips="1" connect="1" arrows="1" fold="1" page="1" pageScale="1" pageWidth="827" pageHeight="1169" math="0" shadow="0">
      <root>
        <mxCell id="0" />
        <mxCell id="1" parent="0" />
        <mxCell id="SP7nUaGou8AFclUCDvNq-2" style="edgeStyle=orthogonalEdgeStyle;rounded=0;orthogonalLoop=1;jettySize=auto;html=1;exitX=1;exitY=0.5;exitDx=0;exitDy=0;entryX=0.5;entryY=0;entryDx=0;entryDy=0;" edge="1" parent="1" source="8RD01GwfZpLmEbGkj-MV-1" target="8RD01GwfZpLmEbGkj-MV-2">
          <mxGeometry relative="1" as="geometry" />
        </mxCell>
        <mxCell id="SP7nUaGou8AFclUCDvNq-7" value="Заявка" style="edgeLabel;html=1;align=center;verticalAlign=middle;resizable=0;points=[];" vertex="1" connectable="0" parent="SP7nUaGou8AFclUCDvNq-2">
          <mxGeometry x="-0.4289" y="-1" relative="1" as="geometry">
            <mxPoint y="-11" as="offset" />
          </mxGeometry>
        </mxCell>
        <mxCell id="8RD01GwfZpLmEbGkj-MV-1" value="Прием заявки" style="rounded=0;whiteSpace=wrap;html=1;" parent="1" vertex="1">
          <mxGeometry x="160" y="120" width="120" height="80" as="geometry" />
        </mxCell>
        <mxCell id="SP7nUaGou8AFclUCDvNq-3" style="edgeStyle=orthogonalEdgeStyle;rounded=0;orthogonalLoop=1;jettySize=auto;html=1;exitX=1;exitY=0.5;exitDx=0;exitDy=0;entryX=0.5;entryY=0;entryDx=0;entryDy=0;" edge="1" parent="1" source="8RD01GwfZpLmEbGkj-MV-2" target="8RD01GwfZpLmEbGkj-MV-3">
          <mxGeometry relative="1" as="geometry" />
        </mxCell>
        <mxCell id="SP7nUaGou8AFclUCDvNq-9" value="Перечень работ" style="edgeLabel;html=1;align=center;verticalAlign=middle;resizable=0;points=[];" vertex="1" connectable="0" parent="SP7nUaGou8AFclUCDvNq-3">
          <mxGeometry x="-0.64" y="2" relative="1" as="geometry">
            <mxPoint x="18" y="-8" as="offset" />
          </mxGeometry>
        </mxCell>
        <mxCell id="8RD01GwfZpLmEbGkj-MV-2" value="Диагностика" style="rounded=0;whiteSpace=wrap;html=1;" parent="1" vertex="1">
          <mxGeometry x="320" y="240" width="120" height="80" as="geometry" />
        </mxCell>
        <mxCell id="SP7nUaGou8AFclUCDvNq-10" style="edgeStyle=orthogonalEdgeStyle;rounded=0;orthogonalLoop=1;jettySize=auto;html=1;exitX=1;exitY=0.5;exitDx=0;exitDy=0;" edge="1" parent="1" source="8RD01GwfZpLmEbGkj-MV-3">
          <mxGeometry relative="1" as="geometry">
            <mxPoint x="720" y="400" as="targetPoint" />
          </mxGeometry>
        </mxCell>
        <mxCell id="SP7nUaGou8AFclUCDvNq-12" value="Выполненный &lt;br&gt;ремонт" style="edgeLabel;html=1;align=center;verticalAlign=middle;resizable=0;points=[];" vertex="1" connectable="0" parent="SP7nUaGou8AFclUCDvNq-10">
          <mxGeometry x="0.1657" y="2" relative="1" as="geometry">
            <mxPoint x="-9" y="-18" as="offset" />
          </mxGeometry>
        </mxCell>
        <mxCell id="8RD01GwfZpLmEbGkj-MV-3" value="Выполнение ремонтных работ" style="rounded=0;whiteSpace=wrap;html=1;" parent="1" vertex="1">
          <mxGeometry x="480" y="360" width="120" height="80" as="geometry" />
        </mxCell>
      </root>
    </mxGraphModel>
  </diagram>
</mxfile>
